name p4_grf_mean_speed_1.2
datacolumns 13
datarows 68
range 0.0000000000 0.6700000000
endheader
time	grf_x_l_mean	grf_x_l_var	grf_y_l_mean	grf_y_l_var	grf_z_l_mean	grf_z_l_var	grf_x_r_mean	grf_x_r_var	grf_y_r_mean	grf_y_r_var	grf_z_r_mean	grf_z_r_var
0.0000000000	95.6288249768	1.0000000000	822.6551499335	1.0000000000	0.0000000000	0.0000000000	17.0370190359	1.0000000000	10.8811664528	1.0000000000	0.0000000000	0.0000000000
0.0100000000	107.0957163374	1.0000000000	821.4181804679	1.0000000000	0.0000000000	0.0000000000	29.3409759262	1.0000000000	38.1099310981	1.0000000000	0.0000000000	0.0000000000
0.0200000000	119.3278326986	1.0000000000	811.0724564533	1.0000000000	0.0000000000	0.0000000000	40.1818159075	1.0000000000	81.0299944297	1.0000000000	0.0000000000	0.0000000000
0.0300000000	131.7826679651	1.0000000000	789.6182873542	1.0000000000	0.0000000000	0.0000000000	40.7787569043	1.0000000000	138.1238107199	1.0000000000	0.0000000000	0.0000000000
0.0400000000	142.8177178566	1.0000000000	755.2234332593	1.0000000000	0.0000000000	0.0000000000	24.5573416729	1.0000000000	207.5895305496	1.0000000000	0.0000000000	0.0000000000
0.0500000000	151.1282464993	1.0000000000	706.5168129520	1.0000000000	0.0000000000	0.0000000000	-4.8484788922	1.0000000000	290.3870612797	1.0000000000	0.0000000000	0.0000000000
0.0600000000	156.0924315887	1.0000000000	643.4189546683	1.0000000000	0.0000000000	0.0000000000	-39.6005605626	1.0000000000	385.3222603130	1.0000000000	0.0000000000	0.0000000000
0.0700000000	155.0550484442	1.0000000000	566.3172566848	1.0000000000	0.0000000000	0.0000000000	-74.7486824337	1.0000000000	483.8109907558	1.0000000000	0.0000000000	0.0000000000
0.0800000000	145.5428828937	1.0000000000	476.4985379428	1.0000000000	0.0000000000	0.0000000000	-105.4838891091	1.0000000000	574.0671911980	1.0000000000	0.0000000000	0.0000000000
0.0900000000	127.0344362780	1.0000000000	379.1084371368	1.0000000000	0.0000000000	0.0000000000	-125.9635174117	1.0000000000	648.0421945305	1.0000000000	0.0000000000	0.0000000000
0.1000000000	100.9951224355	1.0000000000	282.8538026467	1.0000000000	0.0000000000	0.0000000000	-135.6819778616	1.0000000000	703.1661386383	1.0000000000	0.0000000000	0.0000000000
0.1100000000	70.7309907723	1.0000000000	195.9438274575	1.0000000000	0.0000000000	0.0000000000	-138.0621858634	1.0000000000	740.8225926710	1.0000000000	0.0000000000	0.0000000000
0.1200000000	42.3635367454	1.0000000000	124.3072048723	1.0000000000	0.0000000000	0.0000000000	-134.7068405603	1.0000000000	765.0149218224	1.0000000000	0.0000000000	0.0000000000
0.1300000000	20.5451888695	1.0000000000	71.2364748245	1.0000000000	0.0000000000	0.0000000000	-127.3432874020	1.0000000000	780.7011616535	1.0000000000	0.0000000000	0.0000000000
0.1400000000	5.8207092011	1.0000000000	36.1356726292	1.0000000000	0.0000000000	0.0000000000	-119.4248753958	1.0000000000	791.1108332969	1.0000000000	0.0000000000	0.0000000000
0.1500000000	-2.3554961527	1.0000000000	15.2082155836	1.0000000000	0.0000000000	0.0000000000	-111.6543350273	1.0000000000	797.0650308655	1.0000000000	0.0000000000	0.0000000000
0.1600000000	-5.6164416421	1.0000000000	4.3675441801	1.0000000000	0.0000000000	0.0000000000	-102.9491247704	1.0000000000	799.0679673790	1.0000000000	0.0000000000	0.0000000000
0.1700000000	-6.2623671807	1.0000000000	0.4436905021	1.0000000000	0.0000000000	0.0000000000	-94.0706481282	1.0000000000	797.6270883542	1.0000000000	0.0000000000	0.0000000000
0.1800000000	-5.5549478381	1.0000000000	0.4109591399	1.0000000000	0.0000000000	0.0000000000	-84.8842103858	1.0000000000	791.4761320679	1.0000000000	0.0000000000	0.0000000000
0.1900000000	-4.0304027010	1.0000000000	1.6300180483	1.0000000000	0.0000000000	0.0000000000	-74.4094113080	1.0000000000	778.3793093022	1.0000000000	0.0000000000	0.0000000000
0.2000000000	-2.7494382555	1.0000000000	2.7761171610	1.0000000000	0.0000000000	0.0000000000	-63.4659666348	1.0000000000	757.9033562214	1.0000000000	0.0000000000	0.0000000000
0.2100000000	-1.9261650405	1.0000000000	3.5676249700	1.0000000000	0.0000000000	0.0000000000	-53.4004917686	1.0000000000	732.1213258176	1.0000000000	0.0000000000	0.0000000000
0.2200000000	-1.3938829713	1.0000000000	3.8567746177	1.0000000000	0.0000000000	0.0000000000	-43.7104428733	1.0000000000	704.1261289404	1.0000000000	0.0000000000	0.0000000000
0.2300000000	-1.3358539121	1.0000000000	3.5457237140	1.0000000000	0.0000000000	0.0000000000	-35.0771792990	1.0000000000	676.9381334257	1.0000000000	0.0000000000	0.0000000000
0.2400000000	-1.5465787664	1.0000000000	2.9539513911	1.0000000000	0.0000000000	0.0000000000	-28.5069758008	1.0000000000	653.3428511815	1.0000000000	0.0000000000	0.0000000000
0.2500000000	-1.2586700523	1.0000000000	2.5376073770	1.0000000000	0.0000000000	0.0000000000	-23.4352795995	1.0000000000	635.6916666152	1.0000000000	0.0000000000	0.0000000000
0.2600000000	-0.9353887619	1.0000000000	2.2060507262	1.0000000000	0.0000000000	0.0000000000	-19.3395743568	1.0000000000	624.9786280924	1.0000000000	0.0000000000	0.0000000000
0.2700000000	-1.0510290013	1.0000000000	1.8283910693	1.0000000000	0.0000000000	0.0000000000	-16.6158478705	1.0000000000	620.5332691161	1.0000000000	0.0000000000	0.0000000000
0.2800000000	-1.0395454864	1.0000000000	1.5895584001	1.0000000000	0.0000000000	0.0000000000	-14.7202489000	1.0000000000	620.9345214254	1.0000000000	0.0000000000	0.0000000000
0.2900000000	-0.9878520890	1.0000000000	1.4407115585	1.0000000000	0.0000000000	0.0000000000	-12.8585391733	1.0000000000	624.6700943139	1.0000000000	0.0000000000	0.0000000000
0.3000000000	-1.3299751435	1.0000000000	1.1710210252	1.0000000000	0.0000000000	0.0000000000	-11.1425944116	1.0000000000	630.1890764896	1.0000000000	0.0000000000	0.0000000000
0.3100000000	-1.4402076086	1.0000000000	0.8947116408	1.0000000000	0.0000000000	0.0000000000	-9.4494015348	1.0000000000	636.4677349123	1.0000000000	0.0000000000	0.0000000000
0.3200000000	-1.0042251112	1.0000000000	0.7642431707	1.0000000000	0.0000000000	0.0000000000	-7.4791550949	1.0000000000	643.1180616019	1.0000000000	0.0000000000	0.0000000000
0.3300000000	-0.6827156452	1.0000000000	0.6886703347	1.0000000000	0.0000000000	0.0000000000	-5.3718095547	1.0000000000	649.7211318694	1.0000000000	0.0000000000	0.0000000000
0.3400000000	-0.5667349904	1.0000000000	0.5986283754	1.0000000000	0.0000000000	0.0000000000	-3.0286079869	1.0000000000	656.2087616622	1.0000000000	0.0000000000	0.0000000000
0.3500000000	-0.4744485496	1.0000000000	0.5587524379	1.0000000000	0.0000000000	0.0000000000	-0.2334968488	1.0000000000	663.3495303219	1.0000000000	0.0000000000	0.0000000000
0.3600000000	-0.5271575587	1.0000000000	0.5912415947	1.0000000000	0.0000000000	0.0000000000	2.7005190639	1.0000000000	671.6273834006	1.0000000000	0.0000000000	0.0000000000
0.3700000000	-0.6081439283	1.0000000000	0.5726632498	1.0000000000	0.0000000000	0.0000000000	5.9249713706	1.0000000000	680.5752958423	1.0000000000	0.0000000000	0.0000000000
0.3800000000	-0.4308432189	1.0000000000	0.4751078611	1.0000000000	0.0000000000	0.0000000000	9.8135448359	1.0000000000	689.9356132878	1.0000000000	0.0000000000	0.0000000000
0.3900000000	-0.3062808173	1.0000000000	0.4769622526	1.0000000000	0.0000000000	0.0000000000	14.3089219194	1.0000000000	699.9570032384	1.0000000000	0.0000000000	0.0000000000
0.4000000000	-0.3690703877	1.0000000000	0.5024663796	1.0000000000	0.0000000000	0.0000000000	19.2996522260	1.0000000000	710.4255941929	1.0000000000	0.0000000000	0.0000000000
0.4100000000	-0.4763485315	1.0000000000	0.3070740461	1.0000000000	0.0000000000	0.0000000000	25.0463585873	1.0000000000	720.9587825944	1.0000000000	0.0000000000	0.0000000000
0.4200000000	0.0000000000	1.0000000000	0.0000000000	1.0000000000	0.0000000000	0.0000000000	31.4779262576	1.0000000000	731.8046993613	1.0000000000	0.0000000000	0.0000000000
0.4300000000	0.0000000000	1.0000000000	0.0000000000	1.0000000000	0.0000000000	0.0000000000	38.4852734559	1.0000000000	743.1657072655	1.0000000000	0.0000000000	0.0000000000
0.4400000000	0.0000000000	1.0000000000	0.0000000000	1.0000000000	0.0000000000	0.0000000000	46.1529027470	1.0000000000	754.7088007542	1.0000000000	0.0000000000	0.0000000000
0.4500000000	0.0000000000	1.0000000000	0.0000000000	1.0000000000	0.0000000000	0.0000000000	54.2044384439	1.0000000000	766.3498508790	1.0000000000	0.0000000000	0.0000000000
0.4600000000	0.0000000000	1.0000000000	0.0000000000	1.0000000000	0.0000000000	0.0000000000	62.4297236708	1.0000000000	778.0624277228	1.0000000000	0.0000000000	0.0000000000
0.4700000000	0.0000000000	1.0000000000	0.0000000000	1.0000000000	0.0000000000	0.0000000000	71.0941365635	1.0000000000	788.8144221042	1.0000000000	0.0000000000	0.0000000000
0.4800000000	0.0000000000	1.0000000000	0.0000000000	1.0000000000	0.0000000000	0.0000000000	80.3057494608	1.0000000000	797.1131626988	1.0000000000	0.0000000000	0.0000000000
0.4900000000	12.8136705683	1.0000000000	10.9851952164	1.0000000000	0.0000000000	0.0000000000	90.1092929052	1.0000000000	801.9847464743	1.0000000000	0.0000000000	0.0000000000
0.5000000000	24.6919036730	1.0000000000	34.7025688079	1.0000000000	0.0000000000	0.0000000000	100.8879232142	1.0000000000	802.2858106768	1.0000000000	0.0000000000	0.0000000000
0.5100000000	37.0255842347	1.0000000000	71.8031176905	1.0000000000	0.0000000000	0.0000000000	112.7092372595	1.0000000000	795.9093560596	1.0000000000	0.0000000000	0.0000000000
0.5200000000	41.9997021380	1.0000000000	121.9190053141	1.0000000000	0.0000000000	0.0000000000	124.9929126852	1.0000000000	780.2824061960	1.0000000000	0.0000000000	0.0000000000
0.5300000000	31.8687569556	1.0000000000	184.3755602120	1.0000000000	0.0000000000	0.0000000000	136.5903895396	1.0000000000	752.9340112292	1.0000000000	0.0000000000	0.0000000000
0.5400000000	6.1463342270	1.0000000000	260.4901224612	1.0000000000	0.0000000000	0.0000000000	146.2976841134	1.0000000000	711.8171215403	1.0000000000	0.0000000000	0.0000000000
0.5500000000	-29.2170439532	1.0000000000	351.3079021615	1.0000000000	0.0000000000	0.0000000000	152.9039236269	1.0000000000	655.7809717294	1.0000000000	0.0000000000	0.0000000000
0.5600000000	-67.2840296201	1.0000000000	451.8825022633	1.0000000000	0.0000000000	0.0000000000	154.0592279786	1.0000000000	584.4962091694	1.0000000000	0.0000000000	0.0000000000
0.5700000000	-101.8793047340	1.0000000000	550.7737610908	1.0000000000	0.0000000000	0.0000000000	147.4552523503	1.0000000000	499.1312970740	1.0000000000	0.0000000000	0.0000000000
0.5800000000	-127.8139272489	1.0000000000	636.3529503443	1.0000000000	0.0000000000	0.0000000000	132.4595428690	1.0000000000	404.6994927890	1.0000000000	0.0000000000	0.0000000000
0.5900000000	-142.5924997699	1.0000000000	701.8367719356	1.0000000000	0.0000000000	0.0000000000	109.7691994491	1.0000000000	309.8978194417	1.0000000000	0.0000000000	0.0000000000
0.6000000000	-146.8798169986	1.0000000000	745.2541686380	1.0000000000	0.0000000000	0.0000000000	81.9278412366	1.0000000000	222.8351326349	1.0000000000	0.0000000000	0.0000000000
0.6100000000	-142.8738825996	1.0000000000	768.2956751329	1.0000000000	0.0000000000	0.0000000000	53.9684974592	1.0000000000	148.5297610217	1.0000000000	0.0000000000	0.0000000000
0.6200000000	-133.6837816780	1.0000000000	776.2895303953	1.0000000000	0.0000000000	0.0000000000	30.7926353284	1.0000000000	90.3815620553	1.0000000000	0.0000000000	0.0000000000
0.6300000000	-122.7958917727	1.0000000000	776.2077125181	1.0000000000	0.0000000000	0.0000000000	14.0295462024	1.0000000000	49.8603696617	1.0000000000	0.0000000000	0.0000000000
0.6400000000	-112.2880369057	1.0000000000	773.0712183085	1.0000000000	0.0000000000	0.0000000000	3.5489644668	1.0000000000	24.3616694605	1.0000000000	0.0000000000	0.0000000000
0.6500000000	-102.8751313291	1.0000000000	769.3625424441	1.0000000000	0.0000000000	0.0000000000	-1.3849219726	1.0000000000	9.1091323820	1.0000000000	0.0000000000	0.0000000000
0.6600000000	-94.8652219013	1.0000000000	766.5290598773	1.0000000000	0.0000000000	0.0000000000	-2.7946641884	1.0000000000	0.9162072484	1.0000000000	0.0000000000	0.0000000000
0.6700000000	-87.4542612797	1.0000000000	764.6720608403	1.0000000000	0.0000000000	0.0000000000	0.0000000000	1.0000000000	0.0000000000	1.0000000000	0.0000000000	0.0000000000
